<mxfile host="app.diagrams.net" modified="2024-06-30T14:24:26.770Z" agent="Mozilla/5.0 (Macintosh; Intel Mac OS X 10_15_7) AppleWebKit/605.1.15 (KHTML, like Gecko) Version/17.5 Safari/605.1.15" etag="iIMSUIiZKD2ha9byX1Jf" version="24.6.4" type="github">
  <diagram name="Page-1" id="OLBHiFC7clu445UKKoT-">
    <mxGraphModel dx="1514" dy="1320" grid="0" gridSize="10" guides="1" tooltips="1" connect="1" arrows="1" fold="1" page="0" pageScale="1" pageWidth="827" pageHeight="1169" math="0" shadow="0">
      <root>
        <mxCell id="0" />
        <mxCell id="1" parent="0" />
        <mxCell id="R8EYbQ-iDP7JrelXPRHp-1" value="AWS Cloud" style="points=[[0,0],[0.25,0],[0.5,0],[0.75,0],[1,0],[1,0.25],[1,0.5],[1,0.75],[1,1],[0.75,1],[0.5,1],[0.25,1],[0,1],[0,0.75],[0,0.5],[0,0.25]];outlineConnect=0;gradientColor=none;html=1;whiteSpace=wrap;fontSize=12;fontStyle=0;container=1;pointerEvents=0;collapsible=0;recursiveResize=0;shape=mxgraph.aws4.group;grIcon=mxgraph.aws4.group_aws_cloud;strokeColor=#232F3E;fillColor=none;verticalAlign=top;align=left;spacingLeft=30;fontColor=#232F3E;dashed=0;" vertex="1" parent="1">
          <mxGeometry x="-248" y="-86" width="328" height="272" as="geometry" />
        </mxCell>
        <mxCell id="R8EYbQ-iDP7JrelXPRHp-2" value="" style="sketch=0;points=[[0,0,0],[0.25,0,0],[0.5,0,0],[0.75,0,0],[1,0,0],[0,1,0],[0.25,1,0],[0.5,1,0],[0.75,1,0],[1,1,0],[0,0.25,0],[0,0.5,0],[0,0.75,0],[1,0.25,0],[1,0.5,0],[1,0.75,0]];outlineConnect=0;fontColor=#232F3E;fillColor=#8C4FFF;strokeColor=#ffffff;dashed=0;verticalLabelPosition=bottom;verticalAlign=top;align=center;html=1;fontSize=12;fontStyle=0;aspect=fixed;shape=mxgraph.aws4.resourceIcon;resIcon=mxgraph.aws4.athena;" vertex="1" parent="R8EYbQ-iDP7JrelXPRHp-1">
          <mxGeometry x="64" y="94" width="78" height="78" as="geometry" />
        </mxCell>
        <mxCell id="R8EYbQ-iDP7JrelXPRHp-3" value="" style="ellipse;whiteSpace=wrap;html=1;verticalAlign=top;fillColor=#8C4FFF;strokeColor=#ffffff;fontColor=#232F3E;sketch=0;dashed=0;fontStyle=0;" vertex="1" parent="1">
          <mxGeometry x="170" y="7" width="80" height="80" as="geometry" />
        </mxCell>
        <mxCell id="R8EYbQ-iDP7JrelXPRHp-4" value="" style="edgeStyle=orthogonalEdgeStyle;rounded=0;orthogonalLoop=1;jettySize=auto;html=1;" edge="1" parent="1" source="R8EYbQ-iDP7JrelXPRHp-2" target="R8EYbQ-iDP7JrelXPRHp-3">
          <mxGeometry relative="1" as="geometry" />
        </mxCell>
      </root>
    </mxGraphModel>
  </diagram>
</mxfile>
